# xmcd
#
# Track frame offsets:
#	150
#	11130
#	23140
#	32850
#	42300
#	53888
#	62723
#	72933
#	84115
#	95225
#	105375
#	115125
#
# Disc length: 1684 seconds
#
# Revision: 1
# Processed by: cddbd v1.4PL0 Copyright (c) Steve Scherf et al.
# Submitted via: audiograbber 1.81.03
#
DISCID=9a06920c
DTITLE=Johnny Cash - Greatest Hits Vol. 2
DYEAR=1990
DGENRE=Country
TTITLE0=The Ways Of A Woman In Love
TTITLE1=Your're The Nearest Thing To Heaven
TTITLE2=It's Just About Time
TTITLE3=Luther Played The Boogie
TTITLE4=Thanks A Lot
TTITLE5=Katy Too
TTITLE6=Straight A's In Love
TTITLE7=Mean Eyed Cat
TTITLE8=Oh Lonesome Me
TTITLE9=Get Rhythm
TTITLE10=Rock Island Line
TTITLE11=Big River
EXTD=
EXTT0=
EXTT1=
EXTT2=
EXTT3=
EXTT4=
EXTT5=
EXTT6=
EXTT7=
EXTT8=
EXTT9=
EXTT10=
EXTT11=
PLAYORDER=
